<?xml version="1.0" encoding="UTF-8" standalone="no"?>
<!DOCTYPE svg PUBLIC "-//W3C//DTD SVG 1.1//EN"
 "http://www.w3.org/Graphics/SVG/1.1/DTD/svg11.dtd">
<!-- Generated by graphviz version 2.42.3 (20191010.1750)
 -->
<!-- Title: G Pages: 1 -->
<svg width="492pt" height="98pt"
 viewBox="0.00 0.00 491.59 98.00" xmlns="http://www.w3.org/2000/svg" xmlns:xlink="http://www.w3.org/1999/xlink">
<g id="graph0" class="graph" transform="scale(1 1) rotate(0) translate(4 94)">
<title>G</title>
<polygon fill="white" stroke="transparent" points="-4,4 -4,-94 487.59,-94 487.59,4 -4,4"/>
<!-- ticker_500ms -->
<g id="node1" class="node">
<title>ticker_500ms</title>
<ellipse fill="#b3cde3" stroke="black" cx="58.24" cy="-45" rx="58.49" ry="18"/>
<text text-anchor="middle" x="58.24" y="-40.8" font-family="Times,serif" font-size="14.00">ticker_500ms</text>
</g>
<!-- forwarder1 -->
<g id="node2" class="node">
<title>forwarder1</title>
<polygon fill="none" stroke="black" points="230.77,-63 152.4,-63 152.4,-27 230.77,-27 230.77,-63"/>
<text text-anchor="middle" x="191.58" y="-40.8" font-family="Times,serif" font-size="14.00">forwarder1</text>
</g>
<!-- ticker_500ms&#45;&gt;forwarder1 -->
<g id="edge1" class="edge">
<title>ticker_500ms&#45;&gt;forwarder1</title>
<path fill="none" stroke="black" d="M116.85,-45C125.28,-45 133.9,-45 142.12,-45"/>
<polygon fill="black" stroke="black" points="142.29,-48.5 152.29,-45 142.29,-41.5 142.29,-48.5"/>
</g>
<!-- filter_2s -->
<g id="node3" class="node">
<title>filter_2s</title>
<polygon fill="none" stroke="black" points="336.66,-90 274.88,-90 274.88,-54 336.66,-54 336.66,-90"/>
<text text-anchor="middle" x="305.77" y="-67.8" font-family="Times,serif" font-size="14.00">filter_2s</text>
</g>
<!-- forwarder1&#45;&gt;filter_2s -->
<g id="edge3" class="edge">
<title>forwarder1&#45;&gt;filter_2s</title>
<path fill="none" stroke="black" d="M230.88,-54.22C241.86,-56.86 253.86,-59.75 264.93,-62.41"/>
<polygon fill="black" stroke="black" points="264.25,-65.85 274.79,-64.78 265.88,-59.04 264.25,-65.85"/>
</g>
<!-- forwarder2 -->
<g id="node5" class="node">
<title>forwarder2</title>
<polygon fill="none" stroke="black" points="344.96,-36 266.58,-36 266.58,0 344.96,0 344.96,-36"/>
<text text-anchor="middle" x="305.77" y="-13.8" font-family="Times,serif" font-size="14.00">forwarder2</text>
</g>
<!-- forwarder1&#45;&gt;forwarder2 -->
<g id="edge4" class="edge">
<title>forwarder1&#45;&gt;forwarder2</title>
<path fill="none" stroke="black" d="M230.88,-35.78C239.18,-33.79 248.07,-31.65 256.69,-29.57"/>
<polygon fill="black" stroke="black" points="257.74,-32.92 266.65,-27.17 256.11,-26.11 257.74,-32.92"/>
</g>
<!-- tick_printer -->
<g id="node4" class="node">
<title>tick_printer</title>
<ellipse fill="#fbb4ae" stroke="black" cx="432.22" cy="-45" rx="51.22" ry="18"/>
<text text-anchor="middle" x="432.22" y="-40.8" font-family="Times,serif" font-size="14.00">tick_printer</text>
</g>
<!-- filter_2s&#45;&gt;tick_printer -->
<g id="edge2" class="edge">
<title>filter_2s&#45;&gt;tick_printer</title>
<path fill="none" stroke="black" d="M336.9,-65.46C349.29,-62.78 364.01,-59.58 378.1,-56.53"/>
<polygon fill="black" stroke="black" points="379.17,-59.87 388.2,-54.33 377.69,-53.03 379.17,-59.87"/>
</g>
<!-- forwarder2&#45;&gt;tick_printer -->
<g id="edge5" class="edge">
<title>forwarder2&#45;&gt;tick_printer</title>
<path fill="none" stroke="black" d="M345.13,-26.32C355.52,-28.58 366.95,-31.06 378,-33.45"/>
<polygon fill="black" stroke="black" points="377.48,-36.92 388,-35.62 378.97,-30.08 377.48,-36.92"/>
</g>
</g>
</svg>
