<?xml version="1.0" encoding="UTF-8" standalone="no"?>
<!DOCTYPE svg PUBLIC "-//W3C//DTD SVG 1.1//EN"
 "http://www.w3.org/Graphics/SVG/1.1/DTD/svg11.dtd">
<!-- Generated by graphviz version 2.42.3 (20191010.1750)
 -->
<!-- Title: G Pages: 1 -->
<svg width="1510pt" height="125pt"
 viewBox="0.00 0.00 1509.80 125.00" xmlns="http://www.w3.org/2000/svg" xmlns:xlink="http://www.w3.org/1999/xlink">
<g id="graph0" class="graph" transform="scale(1 1) rotate(0) translate(4 121)">
<title>G</title>
<polygon fill="white" stroke="transparent" points="-4,4 -4,-121 1505.8,-121 1505.8,4 -4,4"/>
<!-- dedupe_liability -->
<g id="node1" class="node">
<title>dedupe_liability</title>
<polygon fill="none" stroke="black" points="1295.42,-90 1188.47,-90 1188.47,-54 1295.42,-54 1295.42,-90"/>
<text text-anchor="middle" x="1241.95" y="-67.8" font-family="Times,serif" font-size="14.00">dedupe_liability</text>
</g>
<!-- liability_printer -->
<g id="node2" class="node">
<title>liability_printer</title>
<ellipse fill="#fbb4ae" stroke="black" cx="1436.19" cy="-72" rx="65.72" ry="18"/>
<text text-anchor="middle" x="1436.19" y="-67.8" font-family="Times,serif" font-size="14.00">liability_printer</text>
</g>
<!-- dedupe_liability&#45;&gt;liability_printer -->
<g id="edge1" class="edge">
<title>dedupe_liability&#45;&gt;liability_printer</title>
<path fill="none" stroke="black" d="M1295.48,-72C1315.44,-72 1338.58,-72 1360.22,-72"/>
<polygon fill="black" stroke="black" points="1360.37,-75.5 1370.37,-72 1360.37,-68.5 1360.37,-75.5"/>
</g>
<!-- dedupe_liability_ticker -->
<g id="node3" class="node">
<title>dedupe_liability_ticker</title>
<ellipse fill="#b3cde3" stroke="black" cx="92.13" cy="-99" rx="92.26" ry="18"/>
<text text-anchor="middle" x="92.13" y="-94.8" font-family="Times,serif" font-size="14.00">dedupe_liability_ticker</text>
</g>
<!-- dedupe_liability_cleaner -->
<g id="node4" class="node">
<title>dedupe_liability_cleaner</title>
<ellipse fill="#fbb4ae" stroke="black" cx="317.78" cy="-99" rx="97.54" ry="18"/>
<text text-anchor="middle" x="317.78" y="-94.8" font-family="Times,serif" font-size="14.00">dedupe_liability_cleaner</text>
</g>
<!-- dedupe_liability_ticker&#45;&gt;dedupe_liability_cleaner -->
<g id="edge2" class="edge">
<title>dedupe_liability_ticker&#45;&gt;dedupe_liability_cleaner</title>
<path fill="none" stroke="black" d="M184.42,-99C192.75,-99 201.24,-99 209.69,-99"/>
<polygon fill="black" stroke="black" points="209.96,-102.5 219.96,-99 209.96,-95.5 209.96,-102.5"/>
</g>
<!-- window_out -->
<g id="node5" class="node">
<title>window_out</title>
<polygon fill="none" stroke="black" points="1046.06,-90 960.06,-90 960.06,-54 1046.06,-54 1046.06,-90"/>
<text text-anchor="middle" x="1003.06" y="-67.8" font-family="Times,serif" font-size="14.00">window_out</text>
</g>
<!-- window_out&#45;&gt;dedupe_liability -->
<g id="edge3" class="edge">
<title>window_out&#45;&gt;dedupe_liability</title>
<path fill="none" stroke="black" d="M1046.13,-72C1082.74,-72 1136.3,-72 1178,-72"/>
<polygon fill="black" stroke="black" points="1178.06,-75.5 1188.06,-72 1178.06,-68.5 1178.06,-75.5"/>
</g>
<!-- customer_liability_create -->
<g id="node6" class="node">
<title>customer_liability_create</title>
<polygon fill="none" stroke="black" points="612.46,-90 453.9,-90 453.9,-54 612.46,-54 612.46,-90"/>
<text text-anchor="middle" x="533.18" y="-67.8" font-family="Times,serif" font-size="14.00">customer_liability_create</text>
</g>
<!-- customer_liability_query -->
<g id="node7" class="node">
<title>customer_liability_query</title>
<polygon fill="none" stroke="black" points="832.17,-90 675.68,-90 675.68,-54 832.17,-54 832.17,-90"/>
<text text-anchor="middle" x="753.93" y="-67.8" font-family="Times,serif" font-size="14.00">customer_liability_query</text>
</g>
<!-- customer_liability_create&#45;&gt;customer_liability_query -->
<g id="edge4" class="edge">
<title>customer_liability_create&#45;&gt;customer_liability_query</title>
<path fill="none" stroke="black" d="M612.53,-72C629.65,-72 647.87,-72 665.32,-72"/>
<polygon fill="black" stroke="black" points="665.49,-75.5 675.49,-72 665.49,-68.5 665.49,-75.5"/>
</g>
<!-- customer_liability_query&#45;&gt;window_out -->
<g id="edge8" class="edge">
<title>customer_liability_query&#45;&gt;window_out</title>
<path fill="none" stroke="black" d="M832.44,-72C870.67,-72 915.76,-72 949.84,-72"/>
<polygon fill="black" stroke="black" points="950.04,-75.5 960.04,-72 950.04,-68.5 950.04,-75.5"/>
</g>
<!-- customer_liability_window_cleanup -->
<g id="node8" class="node">
<title>customer_liability_window_cleanup</title>
<polygon fill="none" stroke="black" points="1113.07,-36 893.04,-36 893.04,0 1113.07,0 1113.07,-36"/>
<text text-anchor="middle" x="1003.06" y="-13.8" font-family="Times,serif" font-size="14.00">customer_liability_window_cleanup</text>
</g>
<!-- customer_liability_null -->
<g id="node9" class="node">
<title>customer_liability_null</title>
<ellipse fill="#fbb4ae" stroke="black" cx="1241.95" cy="-18" rx="92.77" ry="18"/>
<text text-anchor="middle" x="1241.95" y="-13.8" font-family="Times,serif" font-size="14.00">customer_liability_null</text>
</g>
<!-- customer_liability_window_cleanup&#45;&gt;customer_liability_null -->
<g id="edge5" class="edge">
<title>customer_liability_window_cleanup&#45;&gt;customer_liability_null</title>
<path fill="none" stroke="black" d="M1113.14,-18C1121.78,-18 1130.49,-18 1139.08,-18"/>
<polygon fill="black" stroke="black" points="1139.09,-21.5 1149.09,-18 1139.09,-14.5 1139.09,-21.5"/>
</g>
<!-- customer_liability -->
<g id="node10" class="node">
<title>customer_liability</title>
<polygon fill="none" stroke="black" points="376.65,-63 258.91,-63 258.91,-27 376.65,-27 376.65,-63"/>
<text text-anchor="middle" x="317.78" y="-40.8" font-family="Times,serif" font-size="14.00">customer_liability</text>
</g>
<!-- customer_liability&#45;&gt;customer_liability_create -->
<g id="edge7" class="edge">
<title>customer_liability&#45;&gt;customer_liability_create</title>
<path fill="none" stroke="black" d="M376.81,-52.34C397.45,-54.95 421.19,-57.96 443.79,-60.82"/>
<polygon fill="black" stroke="black" points="443.38,-64.29 453.74,-62.08 444.26,-57.35 443.38,-64.29"/>
</g>
<!-- customer_liability_splitter -->
<g id="node11" class="node">
<title>customer_liability_splitter</title>
<polygon fill="none" stroke="black" points="614.93,-36 451.43,-36 451.43,0 614.93,0 614.93,-36"/>
<text text-anchor="middle" x="533.18" y="-13.8" font-family="Times,serif" font-size="14.00">customer_liability_splitter</text>
</g>
<!-- customer_liability&#45;&gt;customer_liability_splitter -->
<g id="edge6" class="edge">
<title>customer_liability&#45;&gt;customer_liability_splitter</title>
<path fill="none" stroke="black" d="M376.81,-37.66C396.72,-35.14 419.5,-32.26 441.37,-29.49"/>
<polygon fill="black" stroke="black" points="441.87,-32.95 451.35,-28.23 440.99,-26.01 441.87,-32.95"/>
</g>
<!-- customer_liability_rate_limit_10s -->
<g id="node13" class="node">
<title>customer_liability_rate_limit_10s</title>
<polygon fill="none" stroke="black" points="856.67,-36 651.18,-36 651.18,0 856.67,0 856.67,-36"/>
<text text-anchor="middle" x="753.93" y="-13.8" font-family="Times,serif" font-size="14.00">customer_liability_rate_limit_10s</text>
</g>
<!-- customer_liability_splitter&#45;&gt;customer_liability_rate_limit_10s -->
<g id="edge11" class="edge">
<title>customer_liability_splitter&#45;&gt;customer_liability_rate_limit_10s</title>
<path fill="none" stroke="black" d="M615.01,-18C623.41,-18 632.05,-18 640.71,-18"/>
<polygon fill="black" stroke="black" points="640.88,-21.5 650.88,-18 640.88,-14.5 640.88,-21.5"/>
</g>
<!-- streaming_ingest -->
<g id="node12" class="node">
<title>streaming_ingest</title>
<ellipse fill="#b3cde3" stroke="black" cx="92.13" cy="-45" rx="70.55" ry="18"/>
<text text-anchor="middle" x="92.13" y="-40.8" font-family="Times,serif" font-size="14.00">streaming_ingest</text>
</g>
<!-- streaming_ingest&#45;&gt;customer_liability -->
<g id="edge9" class="edge">
<title>streaming_ingest&#45;&gt;customer_liability</title>
<path fill="none" stroke="black" d="M162.67,-45C189.96,-45 221.19,-45 248.36,-45"/>
<polygon fill="black" stroke="black" points="248.57,-48.5 258.57,-45 248.57,-41.5 248.57,-48.5"/>
</g>
<!-- customer_liability_rate_limit_10s&#45;&gt;customer_liability_window_cleanup -->
<g id="edge10" class="edge">
<title>customer_liability_rate_limit_10s&#45;&gt;customer_liability_window_cleanup</title>
<path fill="none" stroke="black" d="M856.87,-18C865.38,-18 874.02,-18 882.64,-18"/>
<polygon fill="black" stroke="black" points="882.74,-21.5 892.74,-18 882.74,-14.5 882.74,-21.5"/>
</g>
</g>
</svg>
